<svg width="21" height="20" viewBox="0 0 21 20" fill="none" xmlns="http://www.w3.org/2000/svg">
<path d="M10.07 0C7.33541 0 6.99222 0.0118753 5.91817 0.0604175C4.84622 0.109168 4.11453 0.277711 3.47429 0.525006C2.81203 0.780425 2.25026 1.1221 1.69058 1.67814C1.13048 2.23398 0.786446 2.7919 0.528423 3.44941C0.278791 4.08546 0.108873 4.81234 0.0606249 5.87652C0.0125864 6.9432 0 7.28424 0 10.0001C0 12.716 0.0121671 13.0558 0.0608349 14.1224C0.110132 15.187 0.27984 15.9137 0.528633 16.5495C0.786027 17.2073 1.13006 17.7652 1.68995 18.321C2.24942 18.8773 2.81119 19.2198 3.47303 19.4752C4.11369 19.7225 4.84559 19.891 5.91733 19.9398C6.99138 19.9883 7.33436 20.0002 10.0688 20.0002C12.8036 20.0002 13.1458 19.9883 14.2198 19.9398C15.2918 19.891 16.0243 19.7225 16.6649 19.4752C17.327 19.2198 17.8879 18.8773 18.4474 18.321C19.0075 17.7652 19.3515 17.2073 19.6095 16.5498C19.8571 15.9137 20.027 15.1868 20.0773 14.1226C20.1256 13.056 20.1382 12.716 20.1382 10.0001C20.1382 7.28424 20.1256 6.94341 20.0773 5.87673C20.027 4.81213 19.8571 4.08546 19.6095 3.44962C19.3515 2.7919 19.0075 2.23398 18.4474 1.67814C17.8873 1.12189 17.3272 0.780217 16.6643 0.525006C16.0224 0.277711 15.2903 0.109168 14.2183 0.0604175C13.1443 0.0118753 12.8024 0 10.0669 0H10.07ZM9.16674 1.8021C9.43484 1.80169 9.73398 1.8021 10.07 1.8021C12.7585 1.8021 13.0772 1.81169 14.1388 1.8596C15.1206 1.90419 15.6534 2.06711 16.0083 2.20398C16.4782 2.38523 16.8132 2.6019 17.1655 2.95191C17.5179 3.30191 17.736 3.63525 17.919 4.10192C18.0568 4.454 18.221 4.98318 18.2657 5.95819C18.314 7.01236 18.3245 7.32903 18.3245 9.99781C18.3245 12.6666 18.314 12.9833 18.2657 14.0374C18.2208 15.0124 18.0568 15.5416 17.919 15.8937C17.7365 16.3604 17.5179 16.6927 17.1655 17.0425C16.813 17.3925 16.4784 17.6091 16.0083 17.7904C15.6538 17.9279 15.1206 18.0904 14.1388 18.135C13.0774 18.1829 12.7585 18.1933 10.07 18.1933C7.38135 18.1933 7.0627 18.1829 6.00124 18.135C5.01949 18.09 4.48667 17.9271 4.13152 17.7902C3.66162 17.6089 3.32598 17.3923 2.97356 17.0423C2.62114 16.6923 2.40297 16.3598 2.22005 15.8929C2.08223 15.5408 1.91797 15.0116 1.87329 14.0366C1.82504 12.9824 1.81539 12.6658 1.81539 9.99531C1.81539 7.32487 1.82504 7.00987 1.87329 5.95569C1.91818 4.98068 2.08223 4.4515 2.22005 4.099C2.40255 3.63233 2.62114 3.29899 2.97356 2.94899C3.32598 2.59899 3.66162 2.38232 4.13152 2.20065C4.48646 2.06315 5.01949 1.90065 6.00124 1.85585C6.93012 1.81419 7.2901 1.80169 9.16674 1.7996V1.8021ZM15.4449 3.46254C14.7778 3.46254 14.2366 3.99942 14.2366 4.66213C14.2366 5.32464 14.7778 5.86214 15.4449 5.86214C16.112 5.86214 16.6532 5.32464 16.6532 4.66213C16.6532 3.99962 16.112 3.46212 15.4449 3.46212V3.46254ZM10.07 4.86463C7.21437 4.86463 4.89908 7.16403 4.89908 10.0001C4.89908 12.8362 7.21437 15.1345 10.07 15.1345C12.9257 15.1345 15.2401 12.8362 15.2401 10.0001C15.2401 7.16403 12.9255 4.86463 10.0698 4.86463H10.07ZM10.07 6.66674C11.9236 6.66674 13.4264 8.15904 13.4264 10.0001C13.4264 11.841 11.9236 13.3335 10.07 13.3335C8.21625 13.3335 6.71364 11.841 6.71364 10.0001C6.71364 8.15904 8.21625 6.66674 10.07 6.66674Z" fill="#F5F5F5"/>
</svg>
