<svg width="17" height="16" viewBox="0 0 17 16" fill="none" xmlns="http://www.w3.org/2000/svg">
<path d="M16.0613 8C16.0613 12.4183 12.4659 16 8.03066 16C3.59545 16 0 12.4183 0 8C0 3.58172 3.59545 0 8.03066 0C12.4659 0 16.0613 3.58172 16.0613 8ZM8.31848 5.90599C7.53738 6.22963 5.97628 6.8995 3.63518 7.91558C3.25502 8.06618 3.05588 8.21351 3.03775 8.35757C3.00711 8.60103 3.31316 8.6969 3.72993 8.82745C3.78662 8.8452 3.84536 8.8636 3.90557 8.8831C4.31561 9.01588 4.86717 9.17121 5.15391 9.17738C5.414 9.18298 5.7043 9.07616 6.0248 8.85692C8.21216 7.38603 9.34129 6.64258 9.41218 6.62655C9.46219 6.61524 9.53149 6.60102 9.57845 6.6426C9.6254 6.68418 9.62079 6.76291 9.61581 6.78404C9.5855 6.9128 8.38413 8.02543 7.76242 8.60121C7.5686 8.78071 7.43112 8.90804 7.40302 8.93712C7.34006 9.00226 7.2759 9.06388 7.21423 9.1231C6.8333 9.48891 6.54764 9.76324 7.23005 10.2112C7.55799 10.4265 7.8204 10.6045 8.0822 10.7821C8.3681 10.9761 8.65326 11.1695 9.02222 11.4105C9.11622 11.4718 9.206 11.5356 9.29344 11.5977C9.62617 11.834 9.92509 12.0463 10.2944 12.0124C10.509 11.9928 10.7306 11.7918 10.8432 11.1923C11.1093 9.77545 11.6322 6.70567 11.7531 5.44069C11.7636 5.32986 11.7503 5.18802 11.7396 5.12576C11.7289 5.06349 11.7066 4.97478 11.6253 4.90911C11.5291 4.83133 11.3806 4.81493 11.3141 4.8161C11.0121 4.8214 10.5487 4.98192 8.31848 5.90599Z" fill="#F5F5F5"/>
</svg>
