<svg width="21" height="20" viewBox="0 0 21 20" fill="none" xmlns="http://www.w3.org/2000/svg">
<path d="M6.74047 18.75C14.3396 18.75 18.4978 12.4963 18.4978 7.08231C18.4978 6.90637 18.4978 6.73044 18.4898 6.5545C19.2956 5.97872 19.9967 5.25098 20.5527 4.42729C19.8114 4.75517 19.0136 4.97109 18.1755 5.07505C19.0297 4.57124 19.6824 3.76353 19.9967 2.80389C19.1989 3.27571 18.3125 3.61159 17.3696 3.79552C16.6121 2.99582 15.5403 2.5 14.3558 2.5C12.0752 2.5 10.2217 4.33932 10.2217 6.60248C10.2217 6.92237 10.262 7.23425 10.3265 7.53814C6.89358 7.3702 3.84747 5.73081 1.80867 3.25172C1.4541 3.8595 1.25263 4.56324 1.25263 5.31496C1.25263 6.73843 1.98596 7.99397 3.08997 8.7297C2.41306 8.70571 1.77644 8.52178 1.2204 8.21789C1.2204 8.23388 1.2204 8.24988 1.2204 8.27387C1.2204 10.2571 2.64675 11.9205 4.53244 12.2964C4.18593 12.3923 3.82329 12.4403 3.44455 12.4403C3.17862 12.4403 2.92074 12.4163 2.67093 12.3684C3.19473 13.9998 4.72585 15.1833 6.53095 15.2153C5.11265 16.3189 3.33173 16.9747 1.39769 16.9747C1.06729 16.9747 0.736891 16.9587 0.414551 16.9187C2.23577 18.0703 4.41157 18.75 6.74047 18.75Z" fill="#F5F5F5"/>
</svg>
