<svg width="17" height="16" viewBox="0 0 17 16" fill="none" xmlns="http://www.w3.org/2000/svg">
<path d="M13.6534 2.32644C12.1538 0.824899 10.1542 0 8.02492 0C3.6404 0 0.0686869 3.55809 0.0648709 7.92587C0.0648709 9.32478 0.431201 10.6857 1.1257 11.8907L0 16L4.22043 14.8976C5.38429 15.5286 6.69315 15.8632 8.02492 15.8632H8.02873C12.4132 15.8632 15.985 12.3051 15.9888 7.93348C15.985 5.81611 15.1569 3.82419 13.6534 2.32644ZM8.02492 14.5213C6.83434 14.5213 5.67048 14.2019 4.65544 13.6013L4.41504 13.4569L1.91178 14.1107L2.57957 11.6778L2.42312 11.4269C1.75915 10.3778 1.4119 9.16512 1.4119 7.92207C1.4119 4.29556 4.3807 1.33809 8.02873 1.33809C9.79551 1.33809 11.4554 2.02613 12.7071 3.26919C13.9549 4.51604 14.6418 6.16964 14.6418 7.92968C14.6379 11.5676 11.6691 14.5213 8.02492 14.5213ZM11.6539 9.58708C11.4554 9.48824 10.4786 9.00927 10.2954 8.94084C10.1122 8.87622 9.97868 8.84201 9.84894 9.03968C9.71538 9.23735 9.33378 9.68591 9.21931 9.81516C9.10483 9.94821 8.98653 9.96341 8.7881 9.86458C8.58967 9.76574 7.9486 9.55667 7.18923 8.88002C6.59776 8.35543 6.2009 7.70539 6.0826 7.50772C5.96813 7.31005 6.07116 7.20361 6.17037 7.10478C6.25814 7.01734 6.3688 6.87289 6.46801 6.75885C6.56723 6.64481 6.60157 6.56118 6.66644 6.42813C6.73131 6.29508 6.70079 6.18104 6.65118 6.08221C6.60157 5.98337 6.20471 5.00642 6.03681 4.61107C5.87654 4.22333 5.71246 4.27655 5.59035 4.27275C5.47587 4.26515 5.34231 4.26515 5.20875 4.26515C5.0752 4.26515 4.8615 4.31456 4.67834 4.51224C4.49517 4.70991 3.98384 5.18888 3.98384 6.16584C3.98384 7.14279 4.69742 8.08173 4.79663 8.21478C4.89585 8.34783 6.19708 10.3474 8.19282 11.2065C8.66599 11.4117 9.03614 11.5334 9.32615 11.6246C9.80314 11.7767 10.2343 11.7539 10.5778 11.7044C10.9594 11.6474 11.7531 11.2255 11.921 10.7617C12.0851 10.2979 12.0851 9.90259 12.0355 9.81896C11.9859 9.73533 11.8523 9.68591 11.6539 9.58708Z" fill="#F5F5F5"/>
</svg>
