<svg width="285" height="53" viewBox="0 0 285 53" fill="none" xmlns="http://www.w3.org/2000/svg">
<path d="M59.0881 50.0284C58.9365 50.0095 58.5466 50 57.9182 50H57.7667V44.7616H56.8289C56.551 44.7616 56.3868 44.7758 56.3363 44.8042C56.2858 44.8327 56.2463 44.8579 56.2179 44.88L56.2037 44.8753V43.6628L56.2179 43.6486C56.3221 43.6833 56.6031 43.7007 57.0609 43.7007H60.0306C60.3085 43.7007 60.4727 43.6865 60.5232 43.6581C60.5737 43.6296 60.6132 43.6044 60.6416 43.5823L60.6558 43.587V44.7995L60.6416 44.8137C60.5374 44.779 60.2564 44.7616 59.7985 44.7616H59.0881V50.0284ZM66.2977 48.8633C66.4935 48.8633 66.6293 48.8443 66.705 48.8064L66.724 48.8112L66.6766 50H63.1291V43.6675C63.2144 43.6738 63.3091 43.6786 63.4133 43.6817L63.7448 43.6912C63.9659 43.6975 64.2058 43.7007 64.4648 43.7007C65.1878 43.7007 65.903 43.6881 66.6103 43.6628C66.5756 43.9407 66.5582 44.3117 66.5582 44.7758C66.5582 44.8264 66.5614 44.8642 66.5677 44.8895L66.5582 44.9037C66.394 44.8563 66.1604 44.8327 65.8572 44.8327H64.3653V46.0404H65.4878C65.8351 46.0404 66.0435 46.031 66.113 46.012L66.1272 47.1819C65.9757 47.1661 65.7799 47.1582 65.5399 47.1582H64.3653V48.8633H66.2977ZM72.2664 43.5823C72.8569 43.5823 73.3605 43.6849 73.7773 43.8901V45.3395L73.7679 45.3489C73.591 45.0774 73.2184 44.8974 72.6501 44.809C72.4827 44.7806 72.2712 44.7664 72.0154 44.7664C71.7597 44.7664 71.5086 44.8153 71.2623 44.9132C71.0161 45.0079 70.814 45.1437 70.6561 45.3205C70.3498 45.6647 70.1967 46.1557 70.1967 46.7935C70.1967 47.5355 70.3909 48.0881 70.7792 48.4512C71.1013 48.7543 71.5276 48.9059 72.058 48.9059C72.658 48.9059 73.1442 48.778 73.5168 48.5223C73.6526 48.4307 73.7679 48.317 73.8626 48.1813L73.8768 48.1907V49.5169C73.3937 49.9179 72.7432 50.1184 71.9254 50.1184C70.9624 50.1184 70.2077 49.8121 69.6615 49.1996C69.1373 48.6154 68.8752 47.8418 68.8752 46.8788C68.8752 45.8589 69.1626 45.0553 69.7372 44.468C70.3182 43.8775 71.1613 43.5823 72.2664 43.5823ZM77.8042 50.0284C77.501 50.0095 77.1411 50 76.7243 50H76.5727V43.677C76.7685 43.6928 76.9074 43.7007 76.9895 43.7007H77.1837C77.4331 43.7007 77.64 43.6881 77.8042 43.6628V46.1873H80.0302V43.677C80.2923 43.6928 80.5465 43.7007 80.7928 43.7007C81.0422 43.7007 81.1985 43.6881 81.2617 43.6628V50.0284C81.1101 50.0095 80.8101 50 80.3618 50H80.0302V47.324H77.8042V50.0284ZM84.4833 50C84.5023 49.8926 84.5117 49.7758 84.5117 49.6495V43.7007H85.459L87.9693 47.6508V44.0228C87.9693 43.8491 87.9535 43.7417 87.9219 43.7007H89.2007C89.1849 43.827 89.177 43.9659 89.177 44.1175V50H88.1919L85.7195 46.2062V50H84.4833ZM92.8534 49.2517C92.566 48.977 92.3387 48.647 92.1713 48.2618C92.0071 47.8765 91.925 47.455 91.925 46.9972C91.925 46.5362 92.0024 46.1004 92.1571 45.6899C92.3118 45.2795 92.5329 44.9179 92.8202 44.6053C93.1076 44.2927 93.4549 44.0449 93.8622 43.8617C94.2695 43.6754 94.7258 43.5823 95.231 43.5823C96.1025 43.5823 96.8366 43.857 97.4334 44.4064C98.0712 44.9937 98.3901 45.7862 98.3901 46.784C98.3901 47.7502 98.0618 48.5538 97.405 49.1948C97.0008 49.5895 96.5193 49.8611 95.9604 50.0095C95.6857 50.0821 95.3636 50.1184 94.9942 50.1184C94.6279 50.1184 94.2506 50.0426 93.8622 49.8911C93.477 49.7395 93.1407 49.5264 92.8534 49.2517ZM93.2417 46.9309C93.2417 47.2245 93.2907 47.4945 93.3886 47.7408C93.4865 47.9871 93.6222 48.1986 93.7959 48.3754C94.1653 48.748 94.6405 48.9343 95.2215 48.9343C95.7741 48.9343 96.2177 48.7559 96.5524 48.3991C96.8935 48.0297 97.064 47.5261 97.064 46.8882C97.064 46.2883 96.9014 45.7878 96.5761 45.3868C96.2256 44.9574 95.7457 44.7427 95.1363 44.7427C94.5458 44.7427 94.0769 44.9605 93.7296 45.3963C93.4044 45.8036 93.2417 46.3151 93.2417 46.9309ZM101.991 50C101.527 50 101.219 50.0095 101.067 50.0284V43.6723C101.143 43.6912 101.299 43.7007 101.536 43.7007C101.776 43.7007 102.054 43.6944 102.37 43.6817V48.8633H103.35C103.634 48.8633 103.862 48.8538 104.032 48.8349C104.01 49.5737 103.999 49.9574 103.999 49.9858V50.0332C103.689 50.0111 103.17 50 102.441 50H101.991ZM107.093 49.2517C106.805 48.977 106.578 48.647 106.411 48.2618C106.246 47.8765 106.164 47.455 106.164 46.9972C106.164 46.5362 106.242 46.1004 106.396 45.6899C106.551 45.2795 106.772 44.9179 107.06 44.6053C107.347 44.2927 107.694 44.0449 108.102 43.8617C108.509 43.6754 108.965 43.5823 109.47 43.5823C110.342 43.5823 111.076 43.857 111.673 44.4064C112.311 44.9937 112.629 45.7862 112.629 46.784C112.629 47.7502 112.301 48.5538 111.644 49.1948C111.24 49.5895 110.759 49.8611 110.2 50.0095C109.925 50.0821 109.603 50.1184 109.233 50.1184C108.867 50.1184 108.49 50.0426 108.102 49.8911C107.716 49.7395 107.38 49.5264 107.093 49.2517ZM107.481 46.9309C107.481 47.2245 107.53 47.4945 107.628 47.7408C107.726 47.9871 107.862 48.1986 108.035 48.3754C108.405 48.748 108.88 48.9343 109.461 48.9343C110.013 48.9343 110.457 48.7559 110.792 48.3991C111.133 48.0297 111.303 47.5261 111.303 46.8882C111.303 46.2883 111.141 45.7878 110.815 45.3868C110.465 44.9574 109.985 44.7427 109.376 44.7427C108.785 44.7427 108.316 44.9605 107.969 45.3963C107.644 45.8036 107.481 46.3151 107.481 46.9309ZM120.497 46.2015C120.437 46.3088 120.407 46.5662 120.407 46.9735V48.4417C120.407 48.887 120.177 49.2738 119.716 49.6021C119.239 49.9463 118.655 50.1184 117.963 50.1184C117.004 50.1184 116.238 49.8169 115.666 49.2138C115.114 48.6391 114.838 47.9065 114.838 47.0161C114.838 46.0688 115.119 45.2795 115.681 44.6479C116.309 43.9375 117.174 43.5823 118.276 43.5823C119.012 43.5823 119.594 43.7244 120.024 44.0085L119.948 45.4058L119.91 45.4152C119.8 45.2226 119.582 45.0647 119.257 44.9416C118.947 44.8248 118.622 44.7664 118.281 44.7664C117.943 44.7664 117.646 44.82 117.39 44.9274C117.138 45.0347 116.923 45.1879 116.746 45.3868C116.374 45.7941 116.187 46.3325 116.187 47.0019C116.187 47.5861 116.352 48.0549 116.68 48.4086C117.008 48.7591 117.431 48.9343 117.949 48.9343C118.521 48.9343 118.906 48.7859 119.105 48.4891C119.168 48.3944 119.2 48.287 119.2 48.167V47.3808H118.589C118.26 47.3808 118.082 47.4092 118.053 47.4661L118.039 47.4613L117.997 46.2251C118.085 46.2504 118.443 46.263 119.072 46.263H119.631C119.978 46.263 120.262 46.2394 120.483 46.192L120.497 46.2015ZM123.369 43.6817C123.684 43.6944 123.875 43.7007 123.942 43.7007H124.283C124.45 43.7007 124.584 43.6881 124.685 43.6628L124.681 50H123.369V43.6817ZM131.085 48.8633C131.281 48.8633 131.417 48.8443 131.492 48.8064L131.511 48.8112L131.464 50H127.916V43.6675C128.002 43.6738 128.096 43.6786 128.201 43.6817L128.532 43.6912C128.753 43.6975 128.993 43.7007 129.252 43.7007C129.975 43.7007 130.69 43.6881 131.398 43.6628C131.363 43.9407 131.346 44.3117 131.346 44.7758C131.346 44.8264 131.349 44.8642 131.355 44.8895L131.346 44.9037C131.181 44.8563 130.948 44.8327 130.645 44.8327H129.153V46.0404H130.275C130.622 46.0404 130.831 46.031 130.9 46.012L130.914 47.1819C130.763 47.1661 130.567 47.1582 130.327 47.1582H129.153V48.8633H131.085ZM138.034 44.0512L137.944 45.4437L137.911 45.4531C137.677 45.1026 137.279 44.8753 136.717 44.7711C136.541 44.7364 136.37 44.719 136.206 44.719C136.045 44.719 135.906 44.7332 135.789 44.7616C135.675 44.79 135.578 44.8311 135.495 44.8848C135.322 44.9984 135.235 45.1468 135.235 45.33C135.235 45.57 135.311 45.7499 135.462 45.8699C135.652 46.0152 135.966 46.1178 136.405 46.1778C136.844 46.2346 137.196 46.3136 137.461 46.4146C137.726 46.5156 137.944 46.6435 138.115 46.7982C138.437 47.0887 138.598 47.4992 138.598 48.0297C138.598 48.7243 138.336 49.2596 137.812 49.6353C137.363 49.9574 136.798 50.1184 136.116 50.1184C135.567 50.1184 135.023 50.0142 134.487 49.8058C134.31 49.7363 134.155 49.6558 134.022 49.5643L134.075 47.9823L134.094 47.9681C134.485 48.6438 135.128 48.9817 136.021 48.9817C136.656 48.9817 137.076 48.8285 137.281 48.5223C137.351 48.4181 137.385 48.3028 137.385 48.1765C137.385 48.0471 137.365 47.9413 137.324 47.8592C137.283 47.7739 137.215 47.7013 137.12 47.6413C136.937 47.5213 136.629 47.4408 136.196 47.3998C135.764 47.3587 135.41 47.2813 135.136 47.1677C134.861 47.054 134.641 46.9135 134.477 46.7461C134.18 46.443 134.032 46.0199 134.032 45.4768C134.032 44.9148 134.229 44.4601 134.624 44.1127C135.025 43.7591 135.565 43.5823 136.244 43.5823C136.926 43.5823 137.523 43.7386 138.034 44.0512ZM149.337 47.2766C149.185 47.2608 148.99 47.2529 148.75 47.2529H147.315V50H146.017V43.6675C146.102 43.6738 146.2 43.6786 146.31 43.6817L146.661 43.6912C146.901 43.6975 147.15 43.7007 147.409 43.7007C148.186 43.7007 148.928 43.6881 149.635 43.6628C149.601 43.9407 149.583 44.3117 149.583 44.7758C149.583 44.8264 149.586 44.8642 149.593 44.8895L149.583 44.9037C149.416 44.8563 149.182 44.8327 148.882 44.8327H147.315V46.1352H148.698C149.045 46.1352 149.253 46.1257 149.323 46.1067L149.337 47.2766ZM152.829 49.2517C152.541 48.977 152.314 48.647 152.147 48.2618C151.982 47.8765 151.9 47.455 151.9 46.9972C151.9 46.5362 151.978 46.1004 152.132 45.6899C152.287 45.2795 152.508 44.9179 152.795 44.6053C153.083 44.2927 153.43 44.0449 153.837 43.8617C154.245 43.6754 154.701 43.5823 155.206 43.5823C156.078 43.5823 156.812 43.857 157.409 44.4064C158.046 44.9937 158.365 45.7862 158.365 46.784C158.365 47.7502 158.037 48.5538 157.38 49.1948C156.976 49.5895 156.494 49.8611 155.936 50.0095C155.661 50.0821 155.339 50.1184 154.969 50.1184C154.603 50.1184 154.226 50.0426 153.837 49.8911C153.452 49.7395 153.116 49.5264 152.829 49.2517ZM153.217 46.9309C153.217 47.2245 153.266 47.4945 153.364 47.7408C153.462 47.9871 153.597 48.1986 153.771 48.3754C154.141 48.748 154.616 48.9343 155.197 48.9343C155.749 48.9343 156.193 48.7559 156.528 48.3991C156.869 48.0297 157.039 47.5261 157.039 46.8882C157.039 46.2883 156.877 45.7878 156.551 45.3868C156.201 44.9574 155.721 44.7427 155.111 44.7427C154.521 44.7427 154.052 44.9605 153.705 45.3963C153.38 45.8036 153.217 46.3151 153.217 46.9309ZM163.079 47.5513C162.984 47.5576 162.883 47.5608 162.776 47.5608C162.668 47.5608 162.509 47.5529 162.297 47.5371V50H161.042V43.6675C161.484 43.6107 162.027 43.5823 162.672 43.5823C163.549 43.5823 164.203 43.7449 164.632 44.0701C165.065 44.3922 165.281 44.8911 165.281 45.5668C165.281 46.091 165.084 46.5393 164.689 46.9119C164.56 47.0319 164.411 47.1361 164.244 47.2245L165.21 49.2611C165.4 49.6811 165.545 49.9305 165.646 50.0095L165.622 50.0332C165.316 49.9826 164.834 49.9842 164.178 50.0379L163.079 47.5513ZM162.762 44.7C162.601 44.7 162.446 44.7079 162.297 44.7237V46.533C162.452 46.5551 162.634 46.5662 162.842 46.5662C163.05 46.5662 163.226 46.5488 163.368 46.5141C163.51 46.4762 163.633 46.4193 163.737 46.3436C163.961 46.1762 164.074 45.9252 164.074 45.5905C164.074 45.2558 163.957 45.0205 163.723 44.8848C163.505 44.7616 163.185 44.7 162.762 44.7ZM175.997 48.8633C176.193 48.8633 176.328 48.8443 176.404 48.8064L176.423 48.8112L176.376 50H172.828V43.6675C172.913 43.6738 173.008 43.6786 173.112 43.6817L173.444 43.6912C173.665 43.6975 173.905 43.7007 174.164 43.7007C174.887 43.7007 175.602 43.6881 176.309 43.6628C176.275 43.9407 176.257 44.3117 176.257 44.7758C176.257 44.8264 176.26 44.8642 176.267 44.8895L176.257 44.9037C176.093 44.8563 175.859 44.8327 175.556 44.8327H174.064V46.0404H175.187C175.534 46.0404 175.743 46.031 175.812 46.012L175.826 47.1819C175.675 47.1661 175.479 47.1582 175.239 47.1582H174.064V48.8633H175.997ZM181.838 50.0189C181.737 50.0063 181.571 50 181.34 50H180.819C180.734 50 180.657 50.0032 180.587 50.0095L180.582 50C180.595 49.9779 180.601 49.9526 180.601 49.9242C180.601 49.8958 180.598 49.8658 180.592 49.8342C180.589 49.8027 180.576 49.7458 180.554 49.6637C180.532 49.5816 180.497 49.4632 180.45 49.3085L180.251 48.6738L178.489 43.6817C178.685 43.6944 178.934 43.7007 179.237 43.7007C179.54 43.7007 179.735 43.6881 179.82 43.6628L181.246 47.9681L182.496 43.6817C182.685 43.6944 182.919 43.7007 183.197 43.7007C183.576 43.7007 183.797 43.6881 183.86 43.6628L182.131 48.6596C182.131 48.6596 182.076 48.8443 181.965 49.2138C181.874 49.5295 181.828 49.7348 181.828 49.8295C181.828 49.9211 181.834 49.9795 181.847 50.0047L181.838 50.0189ZM189.421 48.8633C189.617 48.8633 189.753 48.8443 189.829 48.8064L189.848 48.8112L189.8 50H186.253V43.6675C186.338 43.6738 186.433 43.6786 186.537 43.6817L186.869 43.6912C187.09 43.6975 187.33 43.7007 187.588 43.7007C188.312 43.7007 189.027 43.6881 189.734 43.6628C189.699 43.9407 189.682 44.3117 189.682 44.7758C189.682 44.8264 189.685 44.8642 189.691 44.8895L189.682 44.9037C189.518 44.8563 189.284 44.8327 188.981 44.8327H187.489V46.0404H188.611C188.959 46.0404 189.167 46.031 189.237 46.012L189.251 47.1819C189.099 47.1661 188.904 47.1582 188.664 47.1582H187.489V48.8633H189.421ZM194.604 47.5513C194.509 47.5576 194.408 47.5608 194.301 47.5608C194.193 47.5608 194.034 47.5529 193.822 47.5371V50H192.567V43.6675C193.009 43.6107 193.552 43.5823 194.197 43.5823C195.074 43.5823 195.728 43.7449 196.157 44.0701C196.59 44.3922 196.806 44.8911 196.806 45.5668C196.806 46.091 196.609 46.5393 196.214 46.9119C196.085 47.0319 195.936 47.1361 195.769 47.2245L196.735 49.2611C196.925 49.6811 197.07 49.9305 197.171 50.0095L197.147 50.0332C196.841 49.9826 196.36 49.9842 195.703 50.0379L194.604 47.5513ZM194.287 44.7C194.126 44.7 193.971 44.7079 193.822 44.7237V46.533C193.977 46.5551 194.159 46.5662 194.367 46.5662C194.575 46.5662 194.751 46.5488 194.893 46.5141C195.035 46.4762 195.158 46.4193 195.262 46.3436C195.486 46.1762 195.599 45.9252 195.599 45.5905C195.599 45.2558 195.482 45.0205 195.248 44.8848C195.03 44.7616 194.71 44.7 194.287 44.7ZM200.999 50C201.04 49.8769 201.06 49.5895 201.06 49.138V47.8213C200.514 46.6183 200.165 45.8683 200.014 45.5715C199.862 45.2716 199.734 45.0347 199.63 44.8611C199.302 44.3054 199.103 43.9864 199.033 43.9043C198.967 43.8222 198.899 43.7544 198.83 43.7007H200.464C200.498 43.7638 200.546 43.857 200.606 43.9801L201.752 46.4004C201.806 46.2678 201.869 46.1194 201.941 45.9552C202.63 44.4743 202.979 43.7228 202.988 43.7007H204.551C204.39 43.8301 204.193 44.1017 203.959 44.5153C203.886 44.6385 203.814 44.779 203.741 44.9369L202.671 47.1677C202.551 47.4361 202.448 47.6776 202.363 47.8923V49.2517C202.363 49.5674 202.382 49.8169 202.42 50H200.999ZM207.304 49.2517C207.017 48.977 206.789 48.647 206.622 48.2618C206.458 47.8765 206.376 47.455 206.376 46.9972C206.376 46.5362 206.453 46.1004 206.608 45.6899C206.762 45.2795 206.983 44.9179 207.271 44.6053C207.558 44.2927 207.905 44.0449 208.313 43.8617C208.72 43.6754 209.176 43.5823 209.682 43.5823C210.553 43.5823 211.287 43.857 211.884 44.4064C212.522 44.9937 212.841 45.7862 212.841 46.784C212.841 47.7502 212.512 48.5538 211.856 49.1948C211.451 49.5895 210.97 49.8611 210.411 50.0095C210.136 50.0821 209.814 50.1184 209.445 50.1184C209.078 50.1184 208.701 50.0426 208.313 49.8911C207.928 49.7395 207.591 49.5264 207.304 49.2517ZM207.692 46.9309C207.692 47.2245 207.741 47.4945 207.839 47.7408C207.937 47.9871 208.073 48.1986 208.246 48.3754C208.616 48.748 209.091 48.9343 209.672 48.9343C210.225 48.9343 210.668 48.7559 211.003 48.3991C211.344 48.0297 211.514 47.5261 211.514 46.8882C211.514 46.2883 211.352 45.7878 211.027 45.3868C210.676 44.9574 210.196 44.7427 209.587 44.7427C208.996 44.7427 208.527 44.9605 208.18 45.3963C207.855 45.8036 207.692 46.3151 207.692 46.9309ZM215.56 50C215.579 49.8926 215.589 49.7758 215.589 49.6495V43.7007H216.536L219.046 47.6508V44.0228C219.046 43.8491 219.03 43.7417 218.999 43.7007H220.278C220.262 43.827 220.254 43.9659 220.254 44.1175V50H219.269L216.796 46.2062V50H215.56ZM226.583 48.8633C226.778 48.8633 226.914 48.8443 226.99 48.8064L227.009 48.8112L226.962 50H223.414V43.6675C223.499 43.6738 223.594 43.6786 223.698 43.6817L224.03 43.6912C224.251 43.6975 224.491 43.7007 224.75 43.7007C225.473 43.7007 226.188 43.6881 226.895 43.6628C226.861 43.9407 226.843 44.3117 226.843 44.7758C226.843 44.8264 226.846 44.8642 226.853 44.8895L226.843 44.9037C226.679 44.8563 226.445 44.8327 226.142 44.8327H224.65V46.0404H225.773C226.12 46.0404 226.328 46.031 226.398 46.012L226.412 47.1819C226.261 47.1661 226.065 47.1582 225.825 47.1582H224.65V48.8633H226.583Z" fill="white"/>
<path d="M24.7656 20.3359C24.5182 20.7786 24.3945 21.8398 24.3945 23.5195V29.5742C24.3945 31.4102 23.444 33.0052 21.543 34.3594C19.5768 35.7786 17.168 36.4883 14.3164 36.4883C10.3581 36.4883 7.20052 35.2448 4.84375 32.7578C2.5651 30.388 1.42578 27.3672 1.42578 23.6953C1.42578 19.7891 2.58464 16.5339 4.90234 13.9297C7.49349 11 11.0612 9.53516 15.6055 9.53516C18.6393 9.53516 21.0417 10.1211 22.8125 11.293L22.5 17.0547L22.3438 17.0938C21.888 16.2995 20.9896 15.6484 19.6484 15.1406C18.3724 14.6589 17.0312 14.418 15.625 14.418C14.2318 14.418 13.0078 14.6393 11.9531 15.082C10.9115 15.5247 10.026 16.1562 9.29688 16.9766C7.76042 18.6562 6.99219 20.8763 6.99219 23.6367C6.99219 26.0456 7.66927 27.9792 9.02344 29.4375C10.3776 30.8828 12.1224 31.6055 14.2578 31.6055C16.6146 31.6055 18.2031 30.9935 19.0234 29.7695C19.2839 29.3789 19.4141 28.9362 19.4141 28.4414V25.1992H16.8945C15.5404 25.1992 14.8047 25.3164 14.6875 25.5508L14.6289 25.5312L14.4531 20.4336C14.8177 20.5378 16.2956 20.5898 18.8867 20.5898H21.1914C22.6237 20.5898 23.7956 20.4922 24.707 20.2969L24.7656 20.3359ZM37.8945 36.1562C36.7747 36.0521 35.4661 36 33.9688 36H32.4258L40.9219 12.1914C41.2995 11.1237 41.4883 10.5052 41.4883 10.3359C41.4883 10.1536 41.4818 10.043 41.4688 10.0039L41.4883 9.96484C42.3346 10.0039 43.2331 10.0234 44.1836 10.0234C44.9648 10.0234 45.9023 10.0104 46.9961 9.98438L47.0156 10.0234C46.9896 10.0755 46.9766 10.1471 46.9766 10.2383C46.9766 10.4857 47.1719 11.1432 47.5625 12.2109L56.2344 36.0586C55.974 36.0456 55.668 36.0391 55.3164 36.0391C55.3164 36.0391 54.9779 36.026 54.3008 36C53.9753 36 53.6823 36 53.4219 36H50.3945L48.5586 30.375H39.7305L37.8945 36.1562ZM47.0352 25.6875L44.0859 16.6055L41.2148 25.6875H47.0352ZM70.6719 36.1172C70.0469 36.0391 68.8424 36 67.0586 36H65.4961V9.94531C66.3294 9.9974 67.2474 10.0234 68.25 10.0234C69.2526 10.0234 69.9622 9.97135 70.3789 9.86719L76.9414 21.0195L83.25 9.86719C83.6667 9.97135 84.4609 10.0234 85.6328 10.0234C86.8047 10.0234 87.8073 9.9974 88.6406 9.94531V36H87.0781C85.2943 36 84.0898 36.0391 83.4648 36.1172V18.6172L77.0781 30.043L70.6719 19.5352V36.1172ZM114.543 31.3125C115.35 31.3125 115.91 31.2344 116.223 31.0781L116.301 31.0977L116.105 36H101.477V9.88672C101.828 9.91276 102.219 9.93229 102.648 9.94531L104.016 9.98438C104.927 10.0104 105.917 10.0234 106.984 10.0234C109.966 10.0234 112.915 9.97135 115.832 9.86719C115.689 11.013 115.617 12.543 115.617 14.457C115.617 14.6654 115.63 14.8216 115.656 14.9258L115.617 14.9844C114.94 14.7891 113.977 14.6914 112.727 14.6914H106.574V19.6719H111.203C112.635 19.6719 113.495 19.6328 113.781 19.5547L113.84 24.3789C113.215 24.3138 112.408 24.2812 111.418 24.2812H106.574V31.3125H114.543ZM152.07 36.1172C151.445 36.0391 150.241 36 148.457 36H146.895V9.94531C147.728 9.9974 148.646 10.0234 149.648 10.0234C150.651 10.0234 151.361 9.97135 151.777 9.86719L158.34 21.0195L164.648 9.86719C165.065 9.97135 165.859 10.0234 167.031 10.0234C168.203 10.0234 169.206 9.9974 170.039 9.94531V36H168.477C166.693 36 165.488 36.0391 164.863 36.1172V18.6172L158.477 30.043L152.07 19.5352V36.1172ZM184.77 36.1562C183.65 36.0521 182.341 36 180.844 36H179.301L187.797 12.1914C188.174 11.1237 188.363 10.5052 188.363 10.3359C188.363 10.1536 188.357 10.043 188.344 10.0039L188.363 9.96484C189.21 10.0039 190.108 10.0234 191.059 10.0234C191.84 10.0234 192.777 10.0104 193.871 9.98438L193.891 10.0234C193.865 10.0755 193.852 10.1471 193.852 10.2383C193.852 10.4857 194.047 11.1432 194.438 12.2109L203.109 36.0586C202.849 36.0456 202.543 36.0391 202.191 36.0391C202.191 36.0391 201.853 36.026 201.176 36C200.85 36 200.557 36 200.297 36H197.27L195.434 30.375H186.605L184.77 36.1562ZM193.91 25.6875L190.961 16.6055L188.09 25.6875H193.91ZM212.449 36C212.527 35.5573 212.566 35.0755 212.566 34.5547V10.0234H216.473L226.824 26.3125V11.3516C226.824 10.6354 226.759 10.1927 226.629 10.0234H231.902C231.837 10.5443 231.805 11.1172 231.805 11.7422V36H227.742L217.547 20.3555V36H212.449ZM245.441 9.94531C246.743 9.9974 247.531 10.0234 247.805 10.0234H249.211C249.901 10.0234 250.454 9.97135 250.871 9.86719L250.852 36H245.441V9.94531ZM266.09 36.1562C264.97 36.0521 263.661 36 262.164 36H260.621L269.117 12.1914C269.495 11.1237 269.684 10.5052 269.684 10.3359C269.684 10.1536 269.677 10.043 269.664 10.0039L269.684 9.96484C270.53 10.0039 271.428 10.0234 272.379 10.0234C273.16 10.0234 274.098 10.0104 275.191 9.98438L275.211 10.0234C275.185 10.0755 275.172 10.1471 275.172 10.2383C275.172 10.4857 275.367 11.1432 275.758 12.2109L284.43 36.0586C284.169 36.0456 283.863 36.0391 283.512 36.0391C283.512 36.0391 283.173 36.026 282.496 36C282.171 36 281.878 36 281.617 36H278.59L276.754 30.375H267.926L266.09 36.1562ZM275.23 25.6875L272.281 16.6055L269.41 25.6875H275.23Z" fill="white"/>
</svg>
