<svg width="50" height="39" viewBox="0 0 50 39" fill="none" xmlns="http://www.w3.org/2000/svg">
<path d="M34.0766 11.7553C34.0766 10.8999 34.7701 10.2064 35.6256 10.2064H41.8213C42.6768 10.2064 43.3703 10.8999 43.3703 11.7553V14.8532C43.3703 15.7086 42.6768 16.4021 41.8213 16.4021H35.6256C34.7701 16.4021 34.0766 15.7086 34.0766 14.8532V11.7553Z" fill="white"/>
<path d="M6.19575 0.912735C2.77393 0.912735 0 3.68667 0 7.10849V31.8915C0 35.3133 2.77393 38.0873 6.19575 38.0873H43.3703C46.7921 38.0873 49.566 35.3133 49.566 31.8915V7.10849C49.566 3.68667 46.7921 0.912735 43.3703 0.912735H6.19575ZM46.4682 7.10849V22.5979H3.09788V7.10849C3.09788 5.39758 4.48484 4.01061 6.19575 4.01061H43.3703C45.0812 4.01061 46.4682 5.39758 46.4682 7.10849ZM43.3703 34.9894H6.19575C4.48484 34.9894 3.09788 33.6024 3.09788 31.8915V28.7936H46.4682V31.8915C46.4682 33.6024 45.0812 34.9894 43.3703 34.9894Z" fill="white"/>
</svg>
