<svg width="71" height="37" viewBox="0 0 71 37" fill="none" xmlns="http://www.w3.org/2000/svg">
<path d="M0 18.5C0 8.69695 7.94695 0.75 17.75 0.75C24.3232 0.75 30.058 4.32304 33.1249 9.625H62.125C62.7134 9.625 63.2778 9.85876 63.6939 10.2749L70.3501 16.9311C71.2166 17.7976 71.2166 19.2024 70.3501 20.0689L63.6939 26.7251C62.8274 27.5916 61.4226 27.5916 60.5561 26.7251L57.6875 23.8565L54.8189 26.7251C53.9524 27.5916 52.5476 27.5916 51.6811 26.7251L48.8125 23.8565L45.9439 26.7251C45.0774 27.5916 43.6726 27.5916 42.8061 26.7251L39.9375 23.8565L37.0689 26.7251C36.6528 27.1412 36.0884 27.375 35.5 27.375H33.1249C30.058 32.677 24.3232 36.25 17.75 36.25C7.94695 36.25 0 28.3031 0 18.5ZM17.75 5.1875C10.3977 5.1875 4.4375 11.1477 4.4375 18.5C4.4375 25.8523 10.3977 31.8125 17.75 31.8125C23.0572 31.8125 27.6435 28.707 29.7825 24.2042C30.1501 23.4305 30.9301 22.9375 31.7866 22.9375H34.581L38.3686 19.1499C39.2351 18.2834 40.6399 18.2834 41.5064 19.1499L44.375 22.0185L47.2436 19.1499C48.1101 18.2834 49.5149 18.2834 50.3814 19.1499L53.25 22.0185L56.1186 19.1499C56.9851 18.2834 58.3899 18.2834 59.2564 19.1499L62.125 22.0185L65.6435 18.5L61.206 14.0625H31.7866C30.9301 14.0625 30.1501 13.5695 29.7825 12.7958C27.6435 8.29302 23.0572 5.1875 17.75 5.1875Z" fill="white"/>
<path d="M17.75 18.5C17.75 20.9508 15.7633 22.9375 13.3125 22.9375C10.8617 22.9375 8.875 20.9508 8.875 18.5C8.875 16.0492 10.8617 14.0625 13.3125 14.0625C15.7633 14.0625 17.75 16.0492 17.75 18.5Z" fill="white"/>
</svg>
