<svg width="37" height="37" viewBox="0 0 37 37" fill="none" xmlns="http://www.w3.org/2000/svg">
<path d="M28.1333 20.6732C26.9216 23.1285 25.2813 25.5765 23.6008 27.7732C21.9256 29.9631 20.2446 31.8589 18.9803 33.2086C18.8123 33.3879 18.6518 33.5574 18.5 33.7164C18.3482 33.5574 18.1877 33.3879 18.0197 33.2086C16.7554 31.8589 15.0744 29.9631 13.3992 27.7732C11.7187 25.5765 10.0784 23.1285 8.86666 20.6732C7.64236 18.1926 6.9375 15.8682 6.9375 13.875C6.9375 7.48921 12.1142 2.3125 18.5 2.3125C24.8858 2.3125 30.0625 7.48921 30.0625 13.875C30.0625 15.8682 29.3576 18.1926 28.1333 20.6732ZM18.5 37C18.5 37 32.375 23.8505 32.375 13.875C32.375 6.21205 26.163 0 18.5 0C10.837 0 4.625 6.21205 4.625 13.875C4.625 23.8505 18.5 37 18.5 37Z" fill="white"/>
<path d="M18.5 18.5C15.9457 18.5 13.875 16.4293 13.875 13.875C13.875 11.3207 15.9457 9.25 18.5 9.25C21.0543 9.25 23.125 11.3207 23.125 13.875C23.125 16.4293 21.0543 18.5 18.5 18.5ZM18.5 20.8125C22.3315 20.8125 25.4375 17.7065 25.4375 13.875C25.4375 10.0435 22.3315 6.9375 18.5 6.9375C14.6685 6.9375 11.5625 10.0435 11.5625 13.875C11.5625 17.7065 14.6685 20.8125 18.5 20.8125Z" fill="white"/>
</svg>
