<svg width="26" height="26" viewBox="0 0 26 26" fill="none" xmlns="http://www.w3.org/2000/svg">
<path d="M13 4.76329L11.8353 3.48631C9.09822 0.485449 4.08549 1.52134 2.27558 5.29159C1.42437 7.06477 1.23297 9.62427 2.78572 12.8918C4.28118 16.0388 7.38997 19.8059 13 23.9106C18.61 19.8059 21.7188 16.0388 23.2143 12.8918C24.767 9.62427 24.5756 7.06477 23.7244 5.29159C21.9145 1.52134 16.9018 0.485449 14.1647 3.48631L13 4.76329ZM13 26C-11.9163 8.43858 5.32798 -5.27084 12.7145 1.98134C12.8114 2.07648 12.9066 2.17522 13 2.27761C13.0934 2.17523 13.1886 2.07649 13.2855 1.98136C20.672 -5.27085 37.9164 8.43857 13 26Z" fill="black"/>
</svg>
