<svg width="17" height="16" viewBox="0 0 17 16" fill="none" xmlns="http://www.w3.org/2000/svg">
<path d="M5.3546 5.11885L7.53872 0.792305C7.63682 0.597985 7.81849 0.500551 8.00041 0.500002C8.18335 0.499451 8.36653 0.596887 8.46519 0.792307L10.6493 5.11885L15.5478 5.81472C15.8149 5.85267 15.9828 6.0781 16.0004 6.31968C16.0025 6.34769 16.0025 6.37593 16.0004 6.40411C15.9908 6.53408 15.9366 6.66299 15.83 6.76462L12.3077 10.1213L13.1374 14.8508C13.2152 15.2942 12.7776 15.6413 12.3912 15.4427L8.00195 13.1868L3.61273 15.4427C3.56442 15.4675 3.51532 15.4838 3.46652 15.4925C3.12495 15.5531 2.79845 15.2388 2.86652 14.8508L3.69625 10.1213L0.173916 6.76462C0.0556178 6.65189 0.00183949 6.50559 0.00195331 6.36151C0.00203743 6.25501 0.0315645 6.14972 0.0862427 6.06009C0.163435 5.93355 0.290754 5.83821 0.456125 5.81472L5.3546 5.11885ZM8.00041 12.0265C8.07994 12.0263 8.15951 12.045 8.23278 12.0826L11.9185 13.977L11.2243 10.0197C11.1916 9.83316 11.2531 9.64214 11.387 9.5145L14.2939 6.7444L10.2416 6.16874C10.074 6.14494 9.92777 6.03795 9.84875 5.88141L8.00195 2.22308L8.00041 2.22614V12.0265Z" fill="#091C32"/>
</svg>
