<svg width="26" height="26" viewBox="0 0 26 26" fill="none" xmlns="http://www.w3.org/2000/svg">
<path d="M3.48798 4.63702C3.17067 4.31972 3.17067 3.80528 3.48798 3.48798C3.80528 3.17067 4.31973 3.17067 4.63703 3.48798L13 11.851L21.363 3.48798C21.6803 3.17067 22.1947 3.17067 22.512 3.48798C22.8293 3.80528 22.8293 4.31972 22.512 4.63702L14.149 13L22.512 21.363C22.8293 21.6803 22.8293 22.1947 22.512 22.512C22.1947 22.8293 21.6803 22.8293 21.363 22.512L13 14.149L4.63703 22.512C4.31972 22.8293 3.80528 22.8293 3.48798 22.512C3.17068 22.1947 3.17068 21.6803 3.48798 21.363L11.851 13L3.48798 4.63702Z" fill="black"/>
</svg>
