<svg width="25" height="25" viewBox="0 0 25 25" fill="none" xmlns="http://www.w3.org/2000/svg">
<path d="M24.2896 10.2476C24.4365 11.0835 24.5054 11.9378 24.5054 12.7875C24.5054 16.5904 23.1459 19.8054 20.7806 21.9825H20.7852C18.7138 23.8931 15.8708 25 12.4996 25C7.77349 25 3.45157 22.3361 1.32965 18.1152C-0.443213 14.5833 -0.443217 10.4221 1.32964 6.89019C3.45156 2.66472 7.77349 0.000842332 12.4996 0.000842332C15.6044 -0.0359009 18.6035 1.1307 20.8633 3.25262L17.2946 6.8213C16.004 5.5904 14.2816 4.91984 12.4996 4.9474C9.23862 4.9474 6.4691 7.1474 5.48163 10.1098C4.95804 11.6622 4.95804 13.3432 5.48163 14.8956H5.48622C6.47829 17.8534 9.24322 20.0534 12.5042 20.0534C14.1898 20.0534 15.6365 19.6217 16.7572 18.8593H16.7526C18.0708 17.9866 18.971 16.6134 19.2511 15.061H12.4996V10.2476H24.2896Z" fill="#868686"/>
</svg>
