<svg width="25" height="25" viewBox="0 0 25 25" fill="none" xmlns="http://www.w3.org/2000/svg">
<path d="M7.85314 23.4375C17.2869 23.4375 22.449 15.6204 22.449 8.85288C22.449 8.63297 22.449 8.41305 22.439 8.19313C23.4394 7.47339 24.3097 6.56373 25 5.53411C24.0796 5.94396 23.0892 6.21386 22.0488 6.34381C23.1092 5.71404 23.9196 4.70442 24.3097 3.50486C23.3193 4.09464 22.2189 4.51449 21.0484 4.7444C20.108 3.74477 18.7775 3.125 17.3069 3.125C14.4758 3.125 12.1749 5.42415 12.1749 8.25311C12.1749 8.65296 12.2249 9.04281 12.3049 9.42267C8.04322 9.21275 4.2617 7.16351 1.73069 4.06465C1.29052 4.82437 1.04042 5.70405 1.04042 6.6437C1.04042 8.42304 1.95078 9.99246 3.32133 10.9121C2.48099 10.8821 1.69068 10.6522 1.0004 10.2724C1.0004 10.2924 1.0004 10.3123 1.0004 10.3423C1.0004 12.8214 2.77111 14.9007 5.11204 15.3705C4.68187 15.4904 4.23169 15.5504 3.7615 15.5504C3.43137 15.5504 3.11124 15.5204 2.80112 15.4604C3.45138 17.4997 5.35214 18.9791 7.59304 19.0191C5.83233 20.3986 3.62145 21.2183 1.22049 21.2183C0.810325 21.2183 0.40016 21.1983 0 21.1483C2.2609 22.5878 4.96199 23.4375 7.85314 23.4375Z" fill="#868686"/>
</svg>
