<svg width="23" height="21" viewBox="0 0 23 21" fill="none" xmlns="http://www.w3.org/2000/svg">
<path d="M8.75 1.625C10.4759 1.625 11.875 3.02411 11.875 4.75V5.375H5.625V4.75C5.625 3.02411 7.02411 1.625 8.75 1.625ZM13.125 5.375V4.75C13.125 2.33375 11.1662 0.375 8.75 0.375C6.33375 0.375 4.375 2.33375 4.375 4.75V5.375H0V17.875C0 19.2557 1.11929 20.375 2.5 20.375H15C16.3807 20.375 17.5 19.2557 17.5 17.875V5.375H13.125ZM1.25 6.625H16.25V17.875C16.25 18.5654 15.6904 19.125 15 19.125H2.5C1.80964 19.125 1.25 18.5654 1.25 17.875V6.625Z" fill="#F5F5F5"/>
</svg>
