<svg width="25" height="20" viewBox="0 0 25 20" fill="none" xmlns="http://www.w3.org/2000/svg">
<path d="M12.5 10C15.0888 10 17.1875 7.90133 17.1875 5.3125C17.1875 2.72367 15.0888 0.625 12.5 0.625C9.91117 0.625 7.8125 2.72367 7.8125 5.3125C7.8125 7.90133 9.91117 10 12.5 10ZM15.625 5.3125C15.625 7.03839 14.2259 8.4375 12.5 8.4375C10.7741 8.4375 9.375 7.03839 9.375 5.3125C9.375 3.58661 10.7741 2.1875 12.5 2.1875C14.2259 2.1875 15.625 3.58661 15.625 5.3125Z" fill="#F5F5F5"/>
<path d="M21.875 17.8125C21.875 19.375 20.3125 19.375 20.3125 19.375H4.6875C4.6875 19.375 3.125 19.375 3.125 17.8125C3.125 16.25 4.6875 11.5625 12.5 11.5625C20.3125 11.5625 21.875 16.25 21.875 17.8125ZM20.3125 17.8071C20.3102 17.4215 20.0722 16.2663 19.0123 15.2064C17.9932 14.1873 16.0767 13.125 12.5 13.125C8.92325 13.125 7.0068 14.1873 5.98765 15.2064C4.92774 16.2663 4.68973 17.4215 4.6875 17.8071H20.3125Z" fill="#F5F5F5"/>
</svg>
